<svg width="389" height="46" viewBox="0 0 389 46" fill="none" xmlns="http://www.w3.org/2000/svg">
<path d="M8.23833 31.56L7.93233 25.202L19.3223 13.2H25.4423L15.1743 24.25L12.1143 27.514L8.23833 31.56ZM3.30833 37V13.2H8.78233V37H3.30833ZM19.5943 37L11.1283 26.63L14.7323 22.72L26.0203 37H19.5943ZM39.173 37.408C37.2917 37.408 35.5463 37.102 33.937 36.49C32.3503 35.878 30.9677 35.0167 29.789 33.906C28.633 32.7953 27.7263 31.492 27.069 29.996C26.4343 28.5 26.117 26.868 26.117 25.1C26.117 23.332 26.4343 21.7 27.069 20.204C27.7263 18.708 28.6443 17.4047 29.823 16.294C31.0017 15.1833 32.3843 14.322 33.971 13.71C35.5577 13.098 37.2803 12.792 39.139 12.792C41.0203 12.792 42.743 13.098 44.307 13.71C45.8937 14.322 47.265 15.1833 48.421 16.294C49.5997 17.4047 50.5177 18.708 51.175 20.204C51.8324 21.6773 52.161 23.3093 52.161 25.1C52.161 26.868 51.8324 28.5113 51.175 30.03C50.5177 31.526 49.5997 32.8293 48.421 33.94C47.265 35.028 45.8937 35.878 44.307 36.49C42.743 37.102 41.0317 37.408 39.173 37.408ZM39.139 32.716C40.2043 32.716 41.179 32.5347 42.063 32.172C42.9697 31.8093 43.763 31.288 44.443 30.608C45.123 29.928 45.6444 29.1233 46.007 28.194C46.3923 27.2647 46.585 26.2333 46.585 25.1C46.585 23.9667 46.3923 22.9353 46.007 22.006C45.6444 21.0767 45.123 20.272 44.443 19.592C43.7857 18.912 43.0037 18.3907 42.097 18.028C41.1903 17.6653 40.2043 17.484 39.139 17.484C38.0737 17.484 37.0877 17.6653 36.181 18.028C35.297 18.3907 34.515 18.912 33.835 19.592C33.155 20.272 32.6223 21.0767 32.237 22.006C31.8743 22.9353 31.693 23.9667 31.693 25.1C31.693 26.2107 31.8743 27.242 32.237 28.194C32.6223 29.1233 33.1437 29.928 33.801 30.608C34.481 31.288 35.2743 31.8093 36.181 32.172C37.0877 32.5347 38.0737 32.716 39.139 32.716ZM56.3005 37V13.2H60.8565L74.8985 30.336H72.6885V13.2H78.1285V37H73.6065L59.5305 19.864H61.7405V37H56.3005ZM91.5795 37.408C89.6755 37.408 87.8508 37.1587 86.1055 36.66C84.3602 36.1387 82.9548 35.47 81.8895 34.654L83.7595 30.506C84.7795 31.2313 85.9808 31.832 87.3635 32.308C88.7688 32.7613 90.1855 32.988 91.6135 32.988C92.7015 32.988 93.5742 32.886 94.2315 32.682C94.9115 32.4553 95.4102 32.1493 95.7275 31.764C96.0448 31.3787 96.2035 30.9367 96.2035 30.438C96.2035 29.8033 95.9542 29.3047 95.4555 28.942C94.9568 28.5567 94.2995 28.2507 93.4835 28.024C92.6675 27.7747 91.7608 27.548 90.7635 27.344C89.7888 27.1173 88.8028 26.8453 87.8055 26.528C86.8308 26.2107 85.9355 25.8027 85.1195 25.304C84.3035 24.8053 83.6348 24.148 83.1135 23.332C82.6148 22.516 82.3655 21.4733 82.3655 20.204C82.3655 18.844 82.7282 17.6087 83.4535 16.498C84.2015 15.3647 85.3122 14.4693 86.7855 13.812C88.2815 13.132 90.1515 12.792 92.3955 12.792C93.8915 12.792 95.3648 12.9733 96.8155 13.336C98.2662 13.676 99.5468 14.1973 100.658 14.9L98.9575 19.082C97.8468 18.4473 96.7362 17.9827 95.6255 17.688C94.5148 17.3707 93.4268 17.212 92.3615 17.212C91.2962 17.212 90.4235 17.3367 89.7435 17.586C89.0635 17.8353 88.5762 18.164 88.2815 18.572C87.9868 18.9573 87.8395 19.4107 87.8395 19.932C87.8395 20.544 88.0888 21.0427 88.5875 21.428C89.0862 21.7907 89.7435 22.0853 90.5595 22.312C91.3755 22.5387 92.2708 22.7653 93.2455 22.992C94.2428 23.2187 95.2288 23.4793 96.2035 23.774C97.2008 24.0687 98.1075 24.4653 98.9235 24.964C99.7395 25.4627 100.397 26.12 100.896 26.936C101.417 27.752 101.678 28.7833 101.678 30.03C101.678 31.3673 101.304 32.5913 100.556 33.702C99.8075 34.8127 98.6855 35.708 97.1895 36.388C95.7162 37.068 93.8462 37.408 91.5795 37.408ZM110.039 37V17.688H102.423V13.2H123.163V17.688H115.547V37H110.039ZM121.803 37L132.411 13.2H137.851L148.493 37H142.713L134.009 15.988H136.185L127.447 37H121.803ZM127.107 31.9L128.569 27.718H140.809L142.305 31.9H127.107ZM150.963 37V13.2H155.519L169.561 30.336H167.351V13.2H172.791V37H168.269L154.193 19.864H156.403V37H150.963ZM183.352 37V17.688H175.736V13.2H196.476V17.688H188.86V37H183.352ZM199.439 37V13.2H204.947V37H199.439ZM210.595 37V13.2H215.151L229.193 30.336H226.983V13.2H232.423V37H227.901L213.825 19.864H216.035V37H210.595ZM295.66 37V17.688H288.044V13.2H308.784V17.688H301.168V37H295.66ZM322.976 37.408C321.094 37.408 319.349 37.102 317.74 36.49C316.153 35.878 314.77 35.0167 313.592 33.906C312.436 32.7953 311.529 31.492 310.872 29.996C310.237 28.5 309.92 26.868 309.92 25.1C309.92 23.332 310.237 21.7 310.872 20.204C311.529 18.708 312.447 17.4047 313.626 16.294C314.804 15.1833 316.187 14.322 317.774 13.71C319.36 13.098 321.083 12.792 322.942 12.792C324.823 12.792 326.546 13.098 328.11 13.71C329.696 14.322 331.068 15.1833 332.224 16.294C333.402 17.4047 334.32 18.708 334.978 20.204C335.635 21.6773 335.964 23.3093 335.964 25.1C335.964 26.868 335.635 28.5113 334.978 30.03C334.32 31.526 333.402 32.8293 332.224 33.94C331.068 35.028 329.696 35.878 328.11 36.49C326.546 37.102 324.834 37.408 322.976 37.408ZM322.942 32.716C324.007 32.716 324.982 32.5347 325.866 32.172C326.772 31.8093 327.566 31.288 328.246 30.608C328.926 29.928 329.447 29.1233 329.81 28.194C330.195 27.2647 330.388 26.2333 330.388 25.1C330.388 23.9667 330.195 22.9353 329.81 22.006C329.447 21.0767 328.926 20.272 328.246 19.592C327.588 18.912 326.806 18.3907 325.9 18.028C324.993 17.6653 324.007 17.484 322.942 17.484C321.876 17.484 320.89 17.6653 319.984 18.028C319.1 18.3907 318.318 18.912 317.638 19.592C316.958 20.272 316.425 21.0767 316.04 22.006C315.677 22.9353 315.496 23.9667 315.496 25.1C315.496 26.2107 315.677 27.242 316.04 28.194C316.425 29.1233 316.946 29.928 317.604 30.608C318.284 31.288 319.077 31.8093 319.984 32.172C320.89 32.5347 321.876 32.716 322.942 32.716ZM340.103 37V13.2H350.405C352.536 13.2 354.372 13.5513 355.913 14.254C357.455 14.934 358.645 15.92 359.483 17.212C360.322 18.504 360.741 20.0453 360.741 21.836C360.741 23.604 360.322 25.134 359.483 26.426C358.645 27.6953 357.455 28.67 355.913 29.35C354.372 30.03 352.536 30.37 350.405 30.37H343.163L345.611 27.956V37H340.103ZM355.233 37L349.283 28.364H355.165L361.183 37H355.233ZM345.611 28.568L343.163 25.984H350.099C351.799 25.984 353.069 25.6213 353.907 24.896C354.746 24.148 355.165 23.128 355.165 21.836C355.165 20.5213 354.746 19.5013 353.907 18.776C353.069 18.0507 351.799 17.688 350.099 17.688H343.163L345.611 15.07V28.568ZM376.597 37.408C374.716 37.408 372.982 37.1133 371.395 36.524C369.831 35.912 368.46 35.0507 367.281 33.94C366.125 32.8293 365.219 31.526 364.561 30.03C363.927 28.534 363.609 26.8907 363.609 25.1C363.609 23.3093 363.927 21.666 364.561 20.17C365.219 18.674 366.137 17.3707 367.315 16.26C368.494 15.1493 369.877 14.2993 371.463 13.71C373.05 13.098 374.795 12.792 376.699 12.792C378.807 12.792 380.7 13.1433 382.377 13.846C384.077 14.5487 385.505 15.5687 386.661 16.906L383.125 20.17C382.264 19.2633 381.323 18.5947 380.303 18.164C379.283 17.7107 378.173 17.484 376.971 17.484C375.815 17.484 374.761 17.6653 373.809 18.028C372.857 18.3907 372.03 18.912 371.327 19.592C370.647 20.272 370.115 21.0767 369.729 22.006C369.367 22.9353 369.185 23.9667 369.185 25.1C369.185 26.2107 369.367 27.2307 369.729 28.16C370.115 29.0893 370.647 29.9053 371.327 30.608C372.03 31.288 372.846 31.8093 373.775 32.172C374.727 32.5347 375.77 32.716 376.903 32.716C377.991 32.716 379.045 32.546 380.065 32.206C381.108 31.8433 382.117 31.2427 383.091 30.404L386.219 34.382C384.927 35.3567 383.42 36.1047 381.697 36.626C379.997 37.1473 378.297 37.408 376.597 37.408ZM381.187 33.668V24.726H386.219V34.382L381.187 33.668Z" fill="#062840"/>
<path d="M272.289 33.2105V37.1053C272.289 37.3649 272.387 37.5921 272.582 37.7868C272.776 37.9816 273.004 38.0789 273.263 38.0789C273.523 38.0789 273.75 37.9816 273.945 37.7868C274.139 37.5921 274.237 37.3649 274.237 37.1053V33.2105H278.132C278.391 33.2105 278.618 33.1132 278.813 32.9184C279.008 32.7237 279.105 32.4965 279.105 32.2368C279.105 31.9772 279.008 31.75 278.813 31.5553C278.618 31.3605 278.391 31.2632 278.132 31.2632H274.237V27.3684C274.237 27.1088 274.139 26.8816 273.945 26.6868C273.75 26.4921 273.523 26.3947 273.263 26.3947C273.004 26.3947 272.776 26.4921 272.582 26.6868C272.387 26.8816 272.289 27.1088 272.289 27.3684V31.2632H268.395C268.135 31.2632 267.908 31.3605 267.713 31.5553C267.518 31.75 267.421 31.9772 267.421 32.2368C267.421 32.4965 267.518 32.7237 267.713 32.9184C267.908 33.1132 268.135 33.2105 268.395 33.2105H272.289ZM273.263 41.9737C270.569 41.9737 268.273 41.024 266.373 39.1247C264.474 37.2253 263.525 34.9294 263.526 32.2368C263.526 29.543 264.476 27.2464 266.375 25.347C268.275 23.4477 270.571 22.4987 273.263 22.5C275.957 22.5 278.254 23.4497 280.153 25.349C282.052 27.2483 283.001 29.5443 283 32.2368C283 34.9307 282.05 37.2273 280.151 39.1266C278.252 41.026 275.956 41.975 273.263 41.9737ZM249.895 38.0789C248.824 38.0789 247.906 37.6973 247.143 36.9339C246.38 36.1705 245.999 35.254 246 34.1842V16.6579C246 16.0412 246.138 15.457 246.415 14.9053C246.691 14.3535 247.072 13.8991 247.558 13.5421L259.242 4.77895C259.924 4.25965 260.703 4 261.579 4C262.455 4 263.234 4.25965 263.916 4.77895L275.6 13.5421C276.087 13.8991 276.469 14.3535 276.745 14.9053C277.022 15.457 277.159 16.0412 277.158 16.6579V19.1895C276.541 18.9947 275.908 18.8487 275.259 18.7513C274.61 18.6539 273.945 18.6053 273.263 18.6053V16.6579L261.579 7.89474L249.895 16.6579V34.1842H259.778C259.875 34.8658 260.021 35.5311 260.216 36.1803C260.411 36.8294 260.654 37.4623 260.946 38.0789H249.895Z" fill="#1BA6E6"/>
</svg>
