<svg width="314" height="46" viewBox="0 0 314 46" fill="none" xmlns="http://www.w3.org/2000/svg">
<path d="M3.27805 37V13.2H7.83405L21.8761 30.336H19.6661V13.2H25.1061V37H20.5841L6.50805 19.864H8.71806V37H3.27805ZM30.737 37V13.2H36.245V37H30.737ZM46.8233 31.56L46.5173 25.202L57.9073 13.2H64.0273L53.7593 24.25L50.6993 27.514L46.8233 31.56ZM41.8933 37V13.2H47.3673V37H41.8933ZM58.1793 37L49.7133 26.63L53.3173 22.72L64.6053 37H58.1793ZM77.758 37.408C75.8766 37.408 74.1313 37.102 72.522 36.49C70.9353 35.878 69.5526 35.0167 68.374 33.906C67.218 32.7953 66.3113 31.492 65.654 29.996C65.0193 28.5 64.702 26.868 64.702 25.1C64.702 23.332 65.0193 21.7 65.654 20.204C66.3113 18.708 67.2293 17.4047 68.408 16.294C69.5866 15.1833 70.9693 14.322 72.556 13.71C74.1426 13.098 75.8653 12.792 77.724 12.792C79.6053 12.792 81.328 13.098 82.892 13.71C84.4786 14.322 85.85 15.1833 87.006 16.294C88.1846 17.4047 89.1026 18.708 89.76 20.204C90.4173 21.6773 90.746 23.3093 90.746 25.1C90.746 26.868 90.4173 28.5113 89.76 30.03C89.1026 31.526 88.1846 32.8293 87.006 33.94C85.85 35.028 84.4786 35.878 82.892 36.49C81.328 37.102 79.6166 37.408 77.758 37.408ZM77.724 32.716C78.7893 32.716 79.764 32.5347 80.648 32.172C81.5546 31.8093 82.348 31.288 83.028 30.608C83.708 29.928 84.2293 29.1233 84.592 28.194C84.9773 27.2647 85.17 26.2333 85.17 25.1C85.17 23.9667 84.9773 22.9353 84.592 22.006C84.2293 21.0767 83.708 20.272 83.028 19.592C82.3706 18.912 81.5886 18.3907 80.682 18.028C79.7753 17.6653 78.7893 17.484 77.724 17.484C76.6586 17.484 75.6726 17.6653 74.766 18.028C73.882 18.3907 73.1 18.912 72.42 19.592C71.74 20.272 71.2073 21.0767 70.822 22.006C70.4593 22.9353 70.278 23.9667 70.278 25.1C70.278 26.2107 70.4593 27.242 70.822 28.194C71.2073 29.1233 71.7286 29.928 72.386 30.608C73.066 31.288 73.8593 31.8093 74.766 32.172C75.6726 32.5347 76.6586 32.716 77.724 32.716ZM94.8855 37V13.2H100.393V32.512H112.327V37H94.8855ZM112.41 37L123.018 13.2H128.458L139.1 37H133.32L124.616 15.988H126.792L118.054 37H112.41ZM117.714 31.9L119.176 27.718H131.416L132.912 31.9H117.714ZM146.024 37V27.276L147.282 30.608L136.81 13.2H142.658L150.682 26.562H147.316L155.374 13.2H160.78L150.308 30.608L151.532 27.276V37H146.024ZM220.69 37V17.688H213.074V13.2H233.814V17.688H226.198V37H220.69ZM248.006 37.408C246.125 37.408 244.379 37.102 242.77 36.49C241.183 35.878 239.801 35.0167 238.622 33.906C237.466 32.7953 236.559 31.492 235.902 29.996C235.267 28.5 234.95 26.868 234.95 25.1C234.95 23.332 235.267 21.7 235.902 20.204C236.559 18.708 237.477 17.4047 238.656 16.294C239.835 15.1833 241.217 14.322 242.804 13.71C244.391 13.098 246.113 12.792 247.972 12.792C249.853 12.792 251.576 13.098 253.14 13.71C254.727 14.322 256.098 15.1833 257.254 16.294C258.433 17.4047 259.351 18.708 260.008 20.204C260.665 21.6773 260.994 23.3093 260.994 25.1C260.994 26.868 260.665 28.5113 260.008 30.03C259.351 31.526 258.433 32.8293 257.254 33.94C256.098 35.028 254.727 35.878 253.14 36.49C251.576 37.102 249.865 37.408 248.006 37.408ZM247.972 32.716C249.037 32.716 250.012 32.5347 250.896 32.172C251.803 31.8093 252.596 31.288 253.276 30.608C253.956 29.928 254.477 29.1233 254.84 28.194C255.225 27.2647 255.418 26.2333 255.418 25.1C255.418 23.9667 255.225 22.9353 254.84 22.006C254.477 21.0767 253.956 20.272 253.276 19.592C252.619 18.912 251.837 18.3907 250.93 18.028C250.023 17.6653 249.037 17.484 247.972 17.484C246.907 17.484 245.921 17.6653 245.014 18.028C244.13 18.3907 243.348 18.912 242.668 19.592C241.988 20.272 241.455 21.0767 241.07 22.006C240.707 22.9353 240.526 23.9667 240.526 25.1C240.526 26.2107 240.707 27.242 241.07 28.194C241.455 29.1233 241.977 29.928 242.634 30.608C243.314 31.288 244.107 31.8093 245.014 32.172C245.921 32.5347 246.907 32.716 247.972 32.716ZM265.134 37V13.2H275.436C277.566 13.2 279.402 13.5513 280.944 14.254C282.485 14.934 283.675 15.92 284.514 17.212C285.352 18.504 285.772 20.0453 285.772 21.836C285.772 23.604 285.352 25.134 284.514 26.426C283.675 27.6953 282.485 28.67 280.944 29.35C279.402 30.03 277.566 30.37 275.436 30.37H268.194L270.642 27.956V37H265.134ZM280.264 37L274.314 28.364H280.196L286.214 37H280.264ZM270.642 28.568L268.194 25.984H275.13C276.83 25.984 278.099 25.6213 278.938 24.896C279.776 24.148 280.196 23.128 280.196 21.836C280.196 20.5213 279.776 19.5013 278.938 18.776C278.099 18.0507 276.83 17.688 275.13 17.688H268.194L270.642 15.07V28.568ZM301.627 37.408C299.746 37.408 298.012 37.1133 296.425 36.524C294.861 35.912 293.49 35.0507 292.311 33.94C291.155 32.8293 290.249 31.526 289.591 30.03C288.957 28.534 288.639 26.8907 288.639 25.1C288.639 23.3093 288.957 21.666 289.591 20.17C290.249 18.674 291.167 17.3707 292.345 16.26C293.524 15.1493 294.907 14.2993 296.493 13.71C298.08 13.098 299.825 12.792 301.729 12.792C303.837 12.792 305.73 13.1433 307.407 13.846C309.107 14.5487 310.535 15.5687 311.691 16.906L308.155 20.17C307.294 19.2633 306.353 18.5947 305.333 18.164C304.313 17.7107 303.203 17.484 302.001 17.484C300.845 17.484 299.791 17.6653 298.839 18.028C297.887 18.3907 297.06 18.912 296.357 19.592C295.677 20.272 295.145 21.0767 294.759 22.006C294.397 22.9353 294.215 23.9667 294.215 25.1C294.215 26.2107 294.397 27.2307 294.759 28.16C295.145 29.0893 295.677 29.9053 296.357 30.608C297.06 31.288 297.876 31.8093 298.805 32.172C299.757 32.5347 300.8 32.716 301.933 32.716C303.021 32.716 304.075 32.546 305.095 32.206C306.138 31.8433 307.147 31.2427 308.121 30.404L311.249 34.382C309.957 35.3567 308.45 36.1047 306.727 36.626C305.027 37.1473 303.327 37.408 301.627 37.408ZM306.217 33.668V24.726H311.249V34.382L306.217 33.668Z" fill="#062840"/>
<path d="M196.289 33.2105V37.1053C196.289 37.3649 196.387 37.5921 196.582 37.7868C196.776 37.9816 197.004 38.0789 197.263 38.0789C197.523 38.0789 197.75 37.9816 197.945 37.7868C198.139 37.5921 198.237 37.3649 198.237 37.1053V33.2105H202.132C202.391 33.2105 202.618 33.1132 202.813 32.9184C203.008 32.7237 203.105 32.4965 203.105 32.2368C203.105 31.9772 203.008 31.75 202.813 31.5553C202.618 31.3605 202.391 31.2632 202.132 31.2632H198.237V27.3684C198.237 27.1088 198.139 26.8816 197.945 26.6868C197.75 26.4921 197.523 26.3947 197.263 26.3947C197.004 26.3947 196.776 26.4921 196.582 26.6868C196.387 26.8816 196.289 27.1088 196.289 27.3684V31.2632H192.395C192.135 31.2632 191.908 31.3605 191.713 31.5553C191.518 31.75 191.421 31.9772 191.421 32.2368C191.421 32.4965 191.518 32.7237 191.713 32.9184C191.908 33.1132 192.135 33.2105 192.395 33.2105H196.289ZM197.263 41.9737C194.569 41.9737 192.273 41.024 190.373 39.1247C188.474 37.2253 187.525 34.9294 187.526 32.2368C187.526 29.543 188.476 27.2464 190.375 25.347C192.275 23.4477 194.571 22.4987 197.263 22.5C199.957 22.5 202.254 23.4497 204.153 25.349C206.052 27.2483 207.001 29.5443 207 32.2368C207 34.9307 206.05 37.2273 204.151 39.1266C202.252 41.026 199.956 41.975 197.263 41.9737ZM173.895 38.0789C172.824 38.0789 171.906 37.6973 171.143 36.9339C170.38 36.1705 169.999 35.254 170 34.1842V16.6579C170 16.0412 170.138 15.457 170.415 14.9053C170.691 14.3535 171.072 13.8991 171.558 13.5421L183.242 4.77895C183.924 4.25965 184.703 4 185.579 4C186.455 4 187.234 4.25965 187.916 4.77895L199.6 13.5421C200.087 13.8991 200.469 14.3535 200.745 14.9053C201.022 15.457 201.159 16.0412 201.158 16.6579V19.1895C200.541 18.9947 199.908 18.8487 199.259 18.7513C198.61 18.6539 197.945 18.6053 197.263 18.6053V16.6579L185.579 7.89474L173.895 16.6579V34.1842H183.778C183.875 34.8658 184.021 35.5311 184.216 36.1803C184.411 36.8294 184.654 37.4623 184.946 38.0789H173.895Z" fill="#1BA6E6"/>
</svg>
