<svg width="281" height="46" viewBox="0 0 281 46" fill="none" xmlns="http://www.w3.org/2000/svg">
<path d="M0.0523984 37L10.6604 13.2H16.1004L26.7424 37H20.9624L12.2584 15.988H14.4344L5.6964 37H0.0523984ZM5.3564 31.9L6.8184 27.718H19.0584L20.5544 31.9H5.3564ZM29.2116 37V13.2H39.5136C41.6443 13.2 43.4803 13.5513 45.0216 14.254C46.563 14.934 47.753 15.92 48.5917 17.212C49.4303 18.504 49.8497 20.0453 49.8497 21.836C49.8497 23.604 49.4303 25.134 48.5917 26.426C47.753 27.6953 46.563 28.67 45.0216 29.35C43.4803 30.03 41.6443 30.37 39.5136 30.37H32.2716L34.7196 27.956V37H29.2116ZM44.3416 37L38.3916 28.364H44.2736L50.2916 37H44.3416ZM34.7196 28.568L32.2716 25.984H39.2076C40.9076 25.984 42.177 25.6213 43.0156 24.896C43.8543 24.148 44.2736 23.128 44.2736 21.836C44.2736 20.5213 43.8543 19.5013 43.0156 18.776C42.177 18.0507 40.9076 17.688 39.2076 17.688H32.2716L34.7196 15.07V28.568ZM58.8116 37V17.688H51.1956V13.2H71.9356V17.688H64.3196V37H58.8116ZM79.9651 22.788H91.4231V27.072H79.9651V22.788ZM80.3731 32.58H93.3271V37H74.8991V13.2H92.8852V17.62H80.3731V32.58ZM97.7097 37V13.2H102.266L112.398 29.996H109.984L119.946 13.2H124.468L124.536 37H119.368L119.334 21.122H120.286L112.33 34.484H109.848L101.722 21.122H102.878V37H97.7097ZM187.788 37V17.688H180.172V13.2H200.912V17.688H193.296V37H187.788ZM215.104 37.408C213.222 37.408 211.477 37.102 209.868 36.49C208.281 35.878 206.898 35.0167 205.72 33.906C204.564 32.7953 203.657 31.492 203 29.996C202.365 28.5 202.048 26.868 202.048 25.1C202.048 23.332 202.365 21.7 203 20.204C203.657 18.708 204.575 17.4047 205.754 16.294C206.932 15.1833 208.315 14.322 209.902 13.71C211.488 13.098 213.211 12.792 215.07 12.792C216.951 12.792 218.674 13.098 220.238 13.71C221.824 14.322 223.196 15.1833 224.352 16.294C225.53 17.4047 226.448 18.708 227.106 20.204C227.763 21.6773 228.092 23.3093 228.092 25.1C228.092 26.868 227.763 28.5113 227.106 30.03C226.448 31.526 225.53 32.8293 224.352 33.94C223.196 35.028 221.824 35.878 220.238 36.49C218.674 37.102 216.962 37.408 215.104 37.408ZM215.07 32.716C216.135 32.716 217.11 32.5347 217.994 32.172C218.9 31.8093 219.694 31.288 220.374 30.608C221.054 29.928 221.575 29.1233 221.938 28.194C222.323 27.2647 222.516 26.2333 222.516 25.1C222.516 23.9667 222.323 22.9353 221.938 22.006C221.575 21.0767 221.054 20.272 220.374 19.592C219.716 18.912 218.934 18.3907 218.028 18.028C217.121 17.6653 216.135 17.484 215.07 17.484C214.004 17.484 213.018 17.6653 212.112 18.028C211.228 18.3907 210.446 18.912 209.766 19.592C209.086 20.272 208.553 21.0767 208.168 22.006C207.805 22.9353 207.624 23.9667 207.624 25.1C207.624 26.2107 207.805 27.242 208.168 28.194C208.553 29.1233 209.074 29.928 209.732 30.608C210.412 31.288 211.205 31.8093 212.112 32.172C213.018 32.5347 214.004 32.716 215.07 32.716ZM232.231 37V13.2H242.533C244.664 13.2 246.5 13.5513 248.041 14.254C249.583 14.934 250.773 15.92 251.611 17.212C252.45 18.504 252.869 20.0453 252.869 21.836C252.869 23.604 252.45 25.134 251.611 26.426C250.773 27.6953 249.583 28.67 248.041 29.35C246.5 30.03 244.664 30.37 242.533 30.37H235.291L237.739 27.956V37H232.231ZM247.361 37L241.411 28.364H247.293L253.311 37H247.361ZM237.739 28.568L235.291 25.984H242.227C243.927 25.984 245.197 25.6213 246.035 24.896C246.874 24.148 247.293 23.128 247.293 21.836C247.293 20.5213 246.874 19.5013 246.035 18.776C245.197 18.0507 243.927 17.688 242.227 17.688H235.291L237.739 15.07V28.568ZM268.725 37.408C266.844 37.408 265.11 37.1133 263.523 36.524C261.959 35.912 260.588 35.0507 259.409 33.94C258.253 32.8293 257.346 31.526 256.689 30.03C256.054 28.534 255.737 26.8907 255.737 25.1C255.737 23.3093 256.054 21.666 256.689 20.17C257.346 18.674 258.264 17.3707 259.443 16.26C260.622 15.1493 262.004 14.2993 263.591 13.71C265.178 13.098 266.923 12.792 268.827 12.792C270.935 12.792 272.828 13.1433 274.505 13.846C276.205 14.5487 277.633 15.5687 278.789 16.906L275.253 20.17C274.392 19.2633 273.451 18.5947 272.431 18.164C271.411 17.7107 270.3 17.484 269.099 17.484C267.943 17.484 266.889 17.6653 265.937 18.028C264.985 18.3907 264.158 18.912 263.455 19.592C262.775 20.272 262.242 21.0767 261.857 22.006C261.494 22.9353 261.313 23.9667 261.313 25.1C261.313 26.2107 261.494 27.2307 261.857 28.16C262.242 29.0893 262.775 29.9053 263.455 30.608C264.158 31.288 264.974 31.8093 265.903 32.172C266.855 32.5347 267.898 32.716 269.031 32.716C270.119 32.716 271.173 32.546 272.193 32.206C273.236 31.8433 274.244 31.2427 275.219 30.404L278.347 34.382C277.055 35.3567 275.548 36.1047 273.825 36.626C272.125 37.1473 270.425 37.408 268.725 37.408ZM273.315 33.668V24.726H278.347V34.382L273.315 33.668Z" fill="#062840"/>
<path d="M166.289 33.2105V37.1053C166.289 37.3649 166.387 37.5921 166.582 37.7868C166.776 37.9816 167.004 38.0789 167.263 38.0789C167.523 38.0789 167.75 37.9816 167.945 37.7868C168.139 37.5921 168.237 37.3649 168.237 37.1053V33.2105H172.132C172.391 33.2105 172.618 33.1132 172.813 32.9184C173.008 32.7237 173.105 32.4965 173.105 32.2368C173.105 31.9772 173.008 31.75 172.813 31.5553C172.618 31.3605 172.391 31.2632 172.132 31.2632H168.237V27.3684C168.237 27.1088 168.139 26.8816 167.945 26.6868C167.75 26.4921 167.523 26.3947 167.263 26.3947C167.004 26.3947 166.776 26.4921 166.582 26.6868C166.387 26.8816 166.289 27.1088 166.289 27.3684V31.2632H162.395C162.135 31.2632 161.908 31.3605 161.713 31.5553C161.518 31.75 161.421 31.9772 161.421 32.2368C161.421 32.4965 161.518 32.7237 161.713 32.9184C161.908 33.1132 162.135 33.2105 162.395 33.2105H166.289ZM167.263 41.9737C164.569 41.9737 162.273 41.024 160.373 39.1247C158.474 37.2253 157.525 34.9294 157.526 32.2368C157.526 29.543 158.476 27.2464 160.375 25.347C162.275 23.4477 164.571 22.4987 167.263 22.5C169.957 22.5 172.254 23.4497 174.153 25.349C176.052 27.2483 177.001 29.5443 177 32.2368C177 34.9307 176.05 37.2273 174.151 39.1266C172.252 41.026 169.956 41.975 167.263 41.9737ZM143.895 38.0789C142.824 38.0789 141.906 37.6973 141.143 36.9339C140.38 36.1705 139.999 35.254 140 34.1842V16.6579C140 16.0412 140.138 15.457 140.415 14.9053C140.691 14.3535 141.072 13.8991 141.558 13.5421L153.242 4.77895C153.924 4.25965 154.703 4 155.579 4C156.455 4 157.234 4.25965 157.916 4.77895L169.6 13.5421C170.087 13.8991 170.469 14.3535 170.745 14.9053C171.022 15.457 171.159 16.0412 171.158 16.6579V19.1895C170.541 18.9947 169.908 18.8487 169.259 18.7513C168.61 18.6539 167.945 18.6053 167.263 18.6053V16.6579L155.579 7.89474L143.895 16.6579V34.1842H153.778C153.875 34.8658 154.021 35.5311 154.216 36.1803C154.411 36.8294 154.654 37.4623 154.946 38.0789H143.895Z" fill="#1BA6E6"/>
</svg>
