<svg width="293" height="46" viewBox="0 0 293 46" fill="none" xmlns="http://www.w3.org/2000/svg">
<path d="M2.8552 37V13.2H13.1572C15.2879 13.2 17.1239 13.5513 18.6652 14.254C20.2065 14.934 21.3965 15.92 22.2352 17.212C23.0739 18.504 23.4932 20.0453 23.4932 21.836C23.4932 23.604 23.0739 25.134 22.2352 26.426C21.3965 27.6953 20.2065 28.67 18.6652 29.35C17.1239 30.03 15.2879 30.37 13.1572 30.37H5.9152L8.3632 27.956V37H2.8552ZM17.9852 37L12.0352 28.364H17.9172L23.9352 37H17.9852ZM8.3632 28.568L5.9152 25.984H12.8512C14.5512 25.984 15.8205 25.6213 16.6592 24.896C17.4979 24.148 17.9172 23.128 17.9172 21.836C17.9172 20.5213 17.4979 19.5013 16.6592 18.776C15.8205 18.0507 14.5512 17.688 12.8512 17.688H5.9152L8.3632 15.07V28.568ZM39.4172 37.408C37.5358 37.408 35.7905 37.102 34.1812 36.49C32.5945 35.878 31.2118 35.0167 30.0332 33.906C28.8772 32.7953 27.9705 31.492 27.3132 29.996C26.6785 28.5 26.3612 26.868 26.3612 25.1C26.3612 23.332 26.6785 21.7 27.3132 20.204C27.9705 18.708 28.8885 17.4047 30.0672 16.294C31.2458 15.1833 32.6285 14.322 34.2152 13.71C35.8018 13.098 37.5245 12.792 39.3832 12.792C41.2645 12.792 42.9872 13.098 44.5512 13.71C46.1378 14.322 47.5092 15.1833 48.6652 16.294C49.8438 17.4047 50.7618 18.708 51.4192 20.204C52.0765 21.6773 52.4052 23.3093 52.4052 25.1C52.4052 26.868 52.0765 28.5113 51.4192 30.03C50.7618 31.526 49.8438 32.8293 48.6652 33.94C47.5092 35.028 46.1378 35.878 44.5512 36.49C42.9872 37.102 41.2758 37.408 39.4172 37.408ZM39.3832 32.716C40.4485 32.716 41.4232 32.5347 42.3072 32.172C43.2138 31.8093 44.0072 31.288 44.6872 30.608C45.3672 29.928 45.8885 29.1233 46.2512 28.194C46.6365 27.2647 46.8292 26.2333 46.8292 25.1C46.8292 23.9667 46.6365 22.9353 46.2512 22.006C45.8885 21.0767 45.3672 20.272 44.6872 19.592C44.0298 18.912 43.2478 18.3907 42.3412 18.028C41.4345 17.6653 40.4485 17.484 39.3832 17.484C38.3178 17.484 37.3318 17.6653 36.4252 18.028C35.5412 18.3907 34.7592 18.912 34.0792 19.592C33.3992 20.272 32.8665 21.0767 32.4812 22.006C32.1185 22.9353 31.9372 23.9667 31.9372 25.1C31.9372 26.2107 32.1185 27.242 32.4812 28.194C32.8665 29.1233 33.3878 29.928 34.0452 30.608C34.7252 31.288 35.5185 31.8093 36.4252 32.172C37.3318 32.5347 38.3178 32.716 39.3832 32.716ZM56.5447 37V13.2H61.1007L71.2327 29.996H68.8187L78.7807 13.2H83.3027L83.3707 37H78.2027L78.1687 21.122H79.1207L71.1647 34.484H68.6827L60.5567 21.122H61.7127V37H56.5447ZM85.8893 37L96.4973 13.2H101.937L112.579 37H106.799L98.0953 15.988H100.271L91.5333 37H85.8893ZM91.1933 31.9L92.6553 27.718H104.895L106.391 31.9H91.1933ZM115.049 37V13.2H119.605L133.647 30.336H131.437V13.2H136.877V37H132.355L118.279 19.864H120.489V37H115.049ZM200.113 37V17.688H192.497V13.2H213.237V17.688H205.621V37H200.113ZM227.429 37.408C225.548 37.408 223.802 37.102 222.193 36.49C220.606 35.878 219.224 35.0167 218.045 33.906C216.889 32.7953 215.982 31.492 215.325 29.996C214.69 28.5 214.373 26.868 214.373 25.1C214.373 23.332 214.69 21.7 215.325 20.204C215.982 18.708 216.9 17.4047 218.079 16.294C219.258 15.1833 220.64 14.322 222.227 13.71C223.814 13.098 225.536 12.792 227.395 12.792C229.276 12.792 230.999 13.098 232.563 13.71C234.15 14.322 235.521 15.1833 236.677 16.294C237.856 17.4047 238.774 18.708 239.431 20.204C240.088 21.6773 240.417 23.3093 240.417 25.1C240.417 26.868 240.088 28.5113 239.431 30.03C238.774 31.526 237.856 32.8293 236.677 33.94C235.521 35.028 234.15 35.878 232.563 36.49C230.999 37.102 229.288 37.408 227.429 37.408ZM227.395 32.716C228.46 32.716 229.435 32.5347 230.319 32.172C231.226 31.8093 232.019 31.288 232.699 30.608C233.379 29.928 233.9 29.1233 234.263 28.194C234.648 27.2647 234.841 26.2333 234.841 25.1C234.841 23.9667 234.648 22.9353 234.263 22.006C233.9 21.0767 233.379 20.272 232.699 19.592C232.042 18.912 231.26 18.3907 230.353 18.028C229.446 17.6653 228.46 17.484 227.395 17.484C226.33 17.484 225.344 17.6653 224.437 18.028C223.553 18.3907 222.771 18.912 222.091 19.592C221.411 20.272 220.878 21.0767 220.493 22.006C220.13 22.9353 219.949 23.9667 219.949 25.1C219.949 26.2107 220.13 27.242 220.493 28.194C220.878 29.1233 221.4 29.928 222.057 30.608C222.737 31.288 223.53 31.8093 224.437 32.172C225.344 32.5347 226.33 32.716 227.395 32.716ZM244.556 37V13.2H254.858C256.989 13.2 258.825 13.5513 260.366 14.254C261.908 14.934 263.098 15.92 263.936 17.212C264.775 18.504 265.194 20.0453 265.194 21.836C265.194 23.604 264.775 25.134 263.936 26.426C263.098 27.6953 261.908 28.67 260.366 29.35C258.825 30.03 256.989 30.37 254.858 30.37H247.616L250.064 27.956V37H244.556ZM259.686 37L253.736 28.364H259.618L265.636 37H259.686ZM250.064 28.568L247.616 25.984H254.552C256.252 25.984 257.522 25.6213 258.36 24.896C259.199 24.148 259.618 23.128 259.618 21.836C259.618 20.5213 259.199 19.5013 258.36 18.776C257.522 18.0507 256.252 17.688 254.552 17.688H247.616L250.064 15.07V28.568ZM281.05 37.408C279.169 37.408 277.435 37.1133 275.848 36.524C274.284 35.912 272.913 35.0507 271.734 33.94C270.578 32.8293 269.672 31.526 269.014 30.03C268.38 28.534 268.062 26.8907 268.062 25.1C268.062 23.3093 268.38 21.666 269.014 20.17C269.672 18.674 270.59 17.3707 271.768 16.26C272.947 15.1493 274.33 14.2993 275.916 13.71C277.503 13.098 279.248 12.792 281.152 12.792C283.26 12.792 285.153 13.1433 286.83 13.846C288.53 14.5487 289.958 15.5687 291.114 16.906L287.578 20.17C286.717 19.2633 285.776 18.5947 284.756 18.164C283.736 17.7107 282.626 17.484 281.424 17.484C280.268 17.484 279.214 17.6653 278.262 18.028C277.31 18.3907 276.483 18.912 275.78 19.592C275.1 20.272 274.568 21.0767 274.182 22.006C273.82 22.9353 273.638 23.9667 273.638 25.1C273.638 26.2107 273.82 27.2307 274.182 28.16C274.568 29.0893 275.1 29.9053 275.78 30.608C276.483 31.288 277.299 31.8093 278.228 32.172C279.18 32.5347 280.223 32.716 281.356 32.716C282.444 32.716 283.498 32.546 284.518 32.206C285.561 31.8433 286.57 31.2427 287.544 30.404L290.672 34.382C289.38 35.3567 287.873 36.1047 286.15 36.626C284.45 37.1473 282.75 37.408 281.05 37.408ZM285.64 33.668V24.726H290.672V34.382L285.64 33.668Z" fill="#062840"/>
<path d="M177.289 33.2105V37.1053C177.289 37.3649 177.387 37.5921 177.582 37.7868C177.776 37.9816 178.004 38.0789 178.263 38.0789C178.523 38.0789 178.75 37.9816 178.945 37.7868C179.139 37.5921 179.237 37.3649 179.237 37.1053V33.2105H183.132C183.391 33.2105 183.618 33.1132 183.813 32.9184C184.008 32.7237 184.105 32.4965 184.105 32.2368C184.105 31.9772 184.008 31.75 183.813 31.5553C183.618 31.3605 183.391 31.2632 183.132 31.2632H179.237V27.3684C179.237 27.1088 179.139 26.8816 178.945 26.6868C178.75 26.4921 178.523 26.3947 178.263 26.3947C178.004 26.3947 177.776 26.4921 177.582 26.6868C177.387 26.8816 177.289 27.1088 177.289 27.3684V31.2632H173.395C173.135 31.2632 172.908 31.3605 172.713 31.5553C172.518 31.75 172.421 31.9772 172.421 32.2368C172.421 32.4965 172.518 32.7237 172.713 32.9184C172.908 33.1132 173.135 33.2105 173.395 33.2105H177.289ZM178.263 41.9737C175.569 41.9737 173.273 41.024 171.373 39.1247C169.474 37.2253 168.525 34.9294 168.526 32.2368C168.526 29.543 169.476 27.2464 171.375 25.347C173.275 23.4477 175.571 22.4987 178.263 22.5C180.957 22.5 183.254 23.4497 185.153 25.349C187.052 27.2483 188.001 29.5443 188 32.2368C188 34.9307 187.05 37.2273 185.151 39.1266C183.252 41.026 180.956 41.975 178.263 41.9737ZM154.895 38.0789C153.824 38.0789 152.906 37.6973 152.143 36.9339C151.38 36.1705 150.999 35.254 151 34.1842V16.6579C151 16.0412 151.138 15.457 151.415 14.9053C151.691 14.3535 152.072 13.8991 152.558 13.5421L164.242 4.77895C164.924 4.25965 165.703 4 166.579 4C167.455 4 168.234 4.25965 168.916 4.77895L180.6 13.5421C181.087 13.8991 181.469 14.3535 181.745 14.9053C182.022 15.457 182.159 16.0412 182.158 16.6579V19.1895C181.541 18.9947 180.908 18.8487 180.259 18.7513C179.61 18.6539 178.945 18.6053 178.263 18.6053V16.6579L166.579 7.89474L154.895 16.6579V34.1842H164.778C164.875 34.8658 165.021 35.5311 165.216 36.1803C165.411 36.8294 165.654 37.4623 165.946 38.0789H154.895Z" fill="#1BA6E6"/>
</svg>
