<svg width="386" height="46" viewBox="0 0 386 46" fill="none" xmlns="http://www.w3.org/2000/svg">
<path d="M10.8881 37.408C8.98409 37.408 7.15943 37.1587 5.41409 36.66C3.66876 36.1387 2.26343 35.47 1.19809 34.654L3.06809 30.506C4.08809 31.2313 5.28943 31.832 6.67209 32.308C8.07743 32.7613 9.49409 32.988 10.9221 32.988C12.0101 32.988 12.8828 32.886 13.5401 32.682C14.2201 32.4553 14.7188 32.1493 15.0361 31.764C15.3534 31.3787 15.5121 30.9367 15.5121 30.438C15.5121 29.8033 15.2628 29.3047 14.7641 28.942C14.2654 28.5567 13.6081 28.2507 12.7921 28.024C11.9761 27.7747 11.0694 27.548 10.0721 27.344C9.09743 27.1173 8.11143 26.8453 7.11409 26.528C6.13943 26.2107 5.24409 25.8027 4.42809 25.304C3.61209 24.8053 2.94343 24.148 2.42209 23.332C1.92343 22.516 1.67409 21.4733 1.67409 20.204C1.67409 18.844 2.03676 17.6087 2.76209 16.498C3.51009 15.3647 4.62076 14.4693 6.09409 13.812C7.59009 13.132 9.46009 12.792 11.7041 12.792C13.2001 12.792 14.6734 12.9733 16.1241 13.336C17.5748 13.676 18.8554 14.1973 19.9661 14.9L18.2661 19.082C17.1554 18.4473 16.0448 17.9827 14.9341 17.688C13.8234 17.3707 12.7354 17.212 11.6701 17.212C10.6048 17.212 9.73209 17.3367 9.05209 17.586C8.37209 17.8353 7.88476 18.164 7.59009 18.572C7.29543 18.9573 7.14809 19.4107 7.14809 19.932C7.14809 20.544 7.39743 21.0427 7.89609 21.428C8.39476 21.7907 9.05209 22.0853 9.86809 22.312C10.6841 22.5387 11.5794 22.7653 12.5541 22.992C13.5514 23.2187 14.5374 23.4793 15.5121 23.774C16.5094 24.0687 17.4161 24.4653 18.2321 24.964C19.0481 25.4627 19.7054 26.12 20.2041 26.936C20.7254 27.752 20.9861 28.7833 20.9861 30.03C20.9861 31.3673 20.6121 32.5913 19.8641 33.702C19.1161 34.8127 17.9941 35.708 16.4981 36.388C15.0248 37.068 13.1548 37.408 10.8881 37.408ZM24.7497 37V13.2H35.0517C37.1824 13.2 39.0184 13.5513 40.5597 14.254C42.1011 14.934 43.2911 15.92 44.1297 17.212C44.9684 18.504 45.3877 20.0453 45.3877 21.836C45.3877 23.604 44.9684 25.134 44.1297 26.426C43.2911 27.718 42.1011 28.7153 40.5597 29.418C39.0184 30.098 37.1824 30.438 35.0517 30.438H27.8097L30.2577 27.956V37H24.7497ZM30.2577 28.568L27.8097 25.95H34.7457C36.4457 25.95 37.7151 25.5873 38.5537 24.862C39.3924 24.1367 39.8117 23.128 39.8117 21.836C39.8117 20.5213 39.3924 19.5013 38.5537 18.776C37.7151 18.0507 36.4457 17.688 34.7457 17.688H27.8097L30.2577 15.07V28.568ZM49.32 37V13.2H54.828V37H49.32ZM60.4763 37V13.2H70.7783C72.909 13.2 74.745 13.5513 76.2863 14.254C77.8276 14.934 79.0176 15.92 79.8563 17.212C80.695 18.504 81.1143 20.0453 81.1143 21.836C81.1143 23.604 80.695 25.134 79.8563 26.426C79.0176 27.6953 77.8276 28.67 76.2863 29.35C74.745 30.03 72.909 30.37 70.7783 30.37H63.5363L65.9843 27.956V37H60.4763ZM75.6063 37L69.6563 28.364H75.5383L81.5563 37H75.6063ZM65.9843 28.568L63.5363 25.984H70.4723C72.1723 25.984 73.4416 25.6213 74.2803 24.896C75.119 24.148 75.5383 23.128 75.5383 21.836C75.5383 20.5213 75.119 19.5013 74.2803 18.776C73.4416 18.0507 72.1723 17.688 70.4723 17.688H63.5363L65.9843 15.07V28.568ZM85.4783 37V13.2H90.9863V37H85.4783ZM96.6345 37V13.2H107.447C110.031 13.2 112.309 13.6987 114.281 14.696C116.253 15.6707 117.794 17.042 118.905 18.81C120.015 20.578 120.571 22.6747 120.571 25.1C120.571 27.5027 120.015 29.5993 118.905 31.39C117.794 33.158 116.253 34.5407 114.281 35.538C112.309 36.5127 110.031 37 107.447 37H96.6345ZM102.143 32.478H107.175C108.761 32.478 110.133 32.1833 111.288 31.594C112.467 30.982 113.374 30.1207 114.009 29.01C114.666 27.8993 114.995 26.596 114.995 25.1C114.995 23.5813 114.666 22.278 114.009 21.19C113.374 20.0793 112.467 19.2293 111.288 18.64C110.133 18.028 108.761 17.722 107.175 17.722H102.143V32.478ZM136.284 37.408C134.403 37.408 132.658 37.102 131.048 36.49C129.462 35.878 128.079 35.0167 126.9 33.906C125.744 32.7953 124.838 31.492 124.18 29.996C123.546 28.5 123.228 26.868 123.228 25.1C123.228 23.332 123.546 21.7 124.18 20.204C124.838 18.708 125.756 17.4047 126.934 16.294C128.113 15.1833 129.496 14.322 131.082 13.71C132.669 13.098 134.392 12.792 136.25 12.792C138.132 12.792 139.854 13.098 141.418 13.71C143.005 14.322 144.376 15.1833 145.532 16.294C146.711 17.4047 147.629 18.708 148.286 20.204C148.944 21.6773 149.272 23.3093 149.272 25.1C149.272 26.868 148.944 28.5113 148.286 30.03C147.629 31.526 146.711 32.8293 145.532 33.94C144.376 35.028 143.005 35.878 141.418 36.49C139.854 37.102 138.143 37.408 136.284 37.408ZM136.25 32.716C137.316 32.716 138.29 32.5347 139.174 32.172C140.081 31.8093 140.874 31.288 141.554 30.608C142.234 29.928 142.756 29.1233 143.118 28.194C143.504 27.2647 143.696 26.2333 143.696 25.1C143.696 23.9667 143.504 22.9353 143.118 22.006C142.756 21.0767 142.234 20.272 141.554 19.592C140.897 18.912 140.115 18.3907 139.208 18.028C138.302 17.6653 137.316 17.484 136.25 17.484C135.185 17.484 134.199 17.6653 133.292 18.028C132.408 18.3907 131.626 18.912 130.946 19.592C130.266 20.272 129.734 21.0767 129.348 22.006C128.986 22.9353 128.804 23.9667 128.804 25.1C128.804 26.2107 128.986 27.242 129.348 28.194C129.734 29.1233 130.255 29.928 130.912 30.608C131.592 31.288 132.386 31.8093 133.292 32.172C134.199 32.5347 135.185 32.716 136.25 32.716ZM153.412 37V13.2H157.968L172.01 30.336H169.8V13.2H175.24V37H170.718L156.642 19.864H158.852V37H153.412ZM192.431 37.408C190.549 37.408 188.804 37.102 187.195 36.49C185.608 35.878 184.225 35.0167 183.047 33.906C181.891 32.7953 180.984 31.492 180.327 29.996C179.692 28.5 179.375 26.868 179.375 25.1C179.375 23.332 179.692 21.7 180.327 20.204C180.984 18.708 181.902 17.4047 183.081 16.294C184.259 15.1833 185.642 14.322 187.229 13.71C188.815 13.098 190.538 12.792 192.397 12.792C194.278 12.792 196.001 13.098 197.565 13.71C199.151 14.322 200.523 15.1833 201.679 16.294C202.857 17.4047 203.775 18.708 204.433 20.204C205.09 21.6773 205.419 23.3093 205.419 25.1C205.419 26.868 205.09 28.5113 204.433 30.03C203.775 31.526 202.857 32.8293 201.679 33.94C200.523 35.028 199.151 35.878 197.565 36.49C196.001 37.102 194.289 37.408 192.431 37.408ZM192.397 32.716C193.462 32.716 194.437 32.5347 195.321 32.172C196.227 31.8093 197.021 31.288 197.701 30.608C198.381 29.928 198.902 29.1233 199.265 28.194C199.65 27.2647 199.843 26.2333 199.843 25.1C199.843 23.9667 199.65 22.9353 199.265 22.006C198.902 21.0767 198.381 20.272 197.701 19.592C197.043 18.912 196.261 18.3907 195.355 18.028C194.448 17.6653 193.462 17.484 192.397 17.484C191.331 17.484 190.345 17.6653 189.439 18.028C188.555 18.3907 187.773 18.912 187.093 19.592C186.413 20.272 185.88 21.0767 185.495 22.006C185.132 22.9353 184.951 23.9667 184.951 25.1C184.951 26.2107 185.132 27.242 185.495 28.194C185.88 29.1233 186.401 29.928 187.059 30.608C187.739 31.288 188.532 31.8093 189.439 32.172C190.345 32.5347 191.331 32.716 192.397 32.716ZM215.935 37L205.667 13.2H211.617L220.593 34.28H217.091L226.203 13.2H231.677L221.375 37H215.935ZM292.9 37V17.688H285.284V13.2H306.024V17.688H298.408V37H292.9ZM320.216 37.408C318.335 37.408 316.589 37.102 314.98 36.49C313.393 35.878 312.011 35.0167 310.832 33.906C309.676 32.7953 308.769 31.492 308.112 29.996C307.477 28.5 307.16 26.868 307.16 25.1C307.16 23.332 307.477 21.7 308.112 20.204C308.769 18.708 309.687 17.4047 310.866 16.294C312.045 15.1833 313.427 14.322 315.014 13.71C316.601 13.098 318.323 12.792 320.182 12.792C322.063 12.792 323.786 13.098 325.35 13.71C326.937 14.322 328.308 15.1833 329.464 16.294C330.643 17.4047 331.561 18.708 332.218 20.204C332.875 21.6773 333.204 23.3093 333.204 25.1C333.204 26.868 332.875 28.5113 332.218 30.03C331.561 31.526 330.643 32.8293 329.464 33.94C328.308 35.028 326.937 35.878 325.35 36.49C323.786 37.102 322.075 37.408 320.216 37.408ZM320.182 32.716C321.247 32.716 322.222 32.5347 323.106 32.172C324.013 31.8093 324.806 31.288 325.486 30.608C326.166 29.928 326.687 29.1233 327.05 28.194C327.435 27.2647 327.628 26.2333 327.628 25.1C327.628 23.9667 327.435 22.9353 327.05 22.006C326.687 21.0767 326.166 20.272 325.486 19.592C324.829 18.912 324.047 18.3907 323.14 18.028C322.233 17.6653 321.247 17.484 320.182 17.484C319.117 17.484 318.131 17.6653 317.224 18.028C316.34 18.3907 315.558 18.912 314.878 19.592C314.198 20.272 313.665 21.0767 313.28 22.006C312.917 22.9353 312.736 23.9667 312.736 25.1C312.736 26.2107 312.917 27.242 313.28 28.194C313.665 29.1233 314.187 29.928 314.844 30.608C315.524 31.288 316.317 31.8093 317.224 32.172C318.131 32.5347 319.117 32.716 320.182 32.716ZM337.343 37V13.2H347.645C349.776 13.2 351.612 13.5513 353.153 14.254C354.695 14.934 355.885 15.92 356.723 17.212C357.562 18.504 357.981 20.0453 357.981 21.836C357.981 23.604 357.562 25.134 356.723 26.426C355.885 27.6953 354.695 28.67 353.153 29.35C351.612 30.03 349.776 30.37 347.645 30.37H340.403L342.851 27.956V37H337.343ZM352.473 37L346.523 28.364H352.405L358.423 37H352.473ZM342.851 28.568L340.403 25.984H347.339C349.039 25.984 350.309 25.6213 351.147 24.896C351.986 24.148 352.405 23.128 352.405 21.836C352.405 20.5213 351.986 19.5013 351.147 18.776C350.309 18.0507 349.039 17.688 347.339 17.688H340.403L342.851 15.07V28.568ZM373.837 37.408C371.956 37.408 370.222 37.1133 368.635 36.524C367.071 35.912 365.7 35.0507 364.521 33.94C363.365 32.8293 362.459 31.526 361.801 30.03C361.167 28.534 360.849 26.8907 360.849 25.1C360.849 23.3093 361.167 21.666 361.801 20.17C362.459 18.674 363.377 17.3707 364.555 16.26C365.734 15.1493 367.117 14.2993 368.703 13.71C370.29 13.098 372.035 12.792 373.939 12.792C376.047 12.792 377.94 13.1433 379.617 13.846C381.317 14.5487 382.745 15.5687 383.901 16.906L380.365 20.17C379.504 19.2633 378.563 18.5947 377.543 18.164C376.523 17.7107 375.413 17.484 374.211 17.484C373.055 17.484 372.001 17.6653 371.049 18.028C370.097 18.3907 369.27 18.912 368.567 19.592C367.887 20.272 367.355 21.0767 366.969 22.006C366.607 22.9353 366.425 23.9667 366.425 25.1C366.425 26.2107 366.607 27.2307 366.969 28.16C367.355 29.0893 367.887 29.9053 368.567 30.608C369.27 31.288 370.086 31.8093 371.015 32.172C371.967 32.5347 373.01 32.716 374.143 32.716C375.231 32.716 376.285 32.546 377.305 32.206C378.348 31.8433 379.357 31.2427 380.331 30.404L383.459 34.382C382.167 35.3567 380.66 36.1047 378.937 36.626C377.237 37.1473 375.537 37.408 373.837 37.408ZM378.427 33.668V24.726H383.459V34.382L378.427 33.668Z" fill="#062840"/>
<path d="M268.289 33.2105V37.1053C268.289 37.3649 268.387 37.5921 268.582 37.7868C268.776 37.9816 269.004 38.0789 269.263 38.0789C269.523 38.0789 269.75 37.9816 269.945 37.7868C270.139 37.5921 270.237 37.3649 270.237 37.1053V33.2105H274.132C274.391 33.2105 274.618 33.1132 274.813 32.9184C275.008 32.7237 275.105 32.4965 275.105 32.2368C275.105 31.9772 275.008 31.75 274.813 31.5553C274.618 31.3605 274.391 31.2632 274.132 31.2632H270.237V27.3684C270.237 27.1088 270.139 26.8816 269.945 26.6868C269.75 26.4921 269.523 26.3947 269.263 26.3947C269.004 26.3947 268.776 26.4921 268.582 26.6868C268.387 26.8816 268.289 27.1088 268.289 27.3684V31.2632H264.395C264.135 31.2632 263.908 31.3605 263.713 31.5553C263.518 31.75 263.421 31.9772 263.421 32.2368C263.421 32.4965 263.518 32.7237 263.713 32.9184C263.908 33.1132 264.135 33.2105 264.395 33.2105H268.289ZM269.263 41.9737C266.569 41.9737 264.273 41.024 262.373 39.1247C260.474 37.2253 259.525 34.9294 259.526 32.2368C259.526 29.543 260.476 27.2464 262.375 25.347C264.275 23.4477 266.571 22.4987 269.263 22.5C271.957 22.5 274.254 23.4497 276.153 25.349C278.052 27.2483 279.001 29.5443 279 32.2368C279 34.9307 278.05 37.2273 276.151 39.1266C274.252 41.026 271.956 41.975 269.263 41.9737ZM245.895 38.0789C244.824 38.0789 243.906 37.6973 243.143 36.9339C242.38 36.1705 241.999 35.254 242 34.1842V16.6579C242 16.0412 242.138 15.457 242.415 14.9053C242.691 14.3535 243.072 13.8991 243.558 13.5421L255.242 4.77895C255.924 4.25965 256.703 4 257.579 4C258.455 4 259.234 4.25965 259.916 4.77895L271.6 13.5421C272.087 13.8991 272.469 14.3535 272.745 14.9053C273.022 15.457 273.159 16.0412 273.158 16.6579V19.1895C272.541 18.9947 271.908 18.8487 271.259 18.7513C270.61 18.6539 269.945 18.6053 269.263 18.6053V16.6579L257.579 7.89474L245.895 16.6579V34.1842H255.778C255.875 34.8658 256.021 35.5311 256.216 36.1803C256.411 36.8294 256.654 37.4623 256.946 38.0789H245.895Z" fill="#1BA6E6"/>
</svg>
